HIERARCHY
ROOT Hips
{
	OFFSET 0.000000 0.000000 0.000000 
	CHANNELS 6 Xposition Yposition Zposition Yrotation Zrotation Xrotation 
	JOINT Lumbar
	{
		OFFSET 0.000000 0.000000 0.000000 
		CHANNELS 3 Zrotation Xrotation Yrotation
		JOINT Neck
		{
			OFFSET 0.000000 0.445665 0.000000 
			CHANNELS 3 Zrotation Xrotation Yrotation
			End Site
			{
				OFFSET 0.000000 0.227535 0.000000 
			}
		}
		JOINT RightShoulder
		{
			OFFSET 0.019635 0.377685 0.194865 
			CHANNELS 3 Zrotation Xrotation Yrotation
			JOINT RightElbow
			{
				OFFSET 0.000000 -0.243375 0.000000 
				CHANNELS 2 Zrotation Yrotation
				JOINT RightWrist
				{
					OFFSET 0.000000 -0.264825 0.000000 
					CHANNELS 2 Zrotation Xrotation
					End Site
					{
						OFFSET 0.006600 -0.176220 0.000990 
					}
				}
			}
		}
		JOINT LeftShoulder
		{
			OFFSET 0.019635 0.377685 -0.194865 
			CHANNELS 3 Zrotation Xrotation Yrotation
			JOINT LeftElbow
			{
				OFFSET 0.000000 -0.243375 0.000000 
				CHANNELS 2 Zrotation Yrotation
				JOINT LeftWrist
				{
					OFFSET 0.000000 -0.264825 0.000000 
					CHANNELS 2 Zrotation Xrotation
					End Site
					{
						OFFSET 0.006600 -0.176220 -0.000990 
					}
				}
			}
		}
	}
	JOINT RightHip
	{
		OFFSET 0.052140 -0.069960 0.075570 
		CHANNELS 3 Zrotation Xrotation Yrotation
		JOINT RightKnee
		{
			OFFSET 0.000000 -0.402270 0.000000 
			CHANNELS 1 Zrotation
			JOINT RightAnkle
			{
				OFFSET 0.000000 -0.404085 0.000000 
				CHANNELS 3 Zrotation Xrotation Yrotation
				End Site
				{
					OFFSET 0.204105 -0.089430 0.008415 
				}
			}
		}
	}
	JOINT LeftHip
	{
		OFFSET 0.052140 -0.069960 -0.075570 
		CHANNELS 3 Zrotation Xrotation Yrotation
		JOINT LeftKnee
		{
			OFFSET 0.000000 -0.402270 0.000000 
			CHANNELS 1 Zrotation
			JOINT LeftAnkle
			{
				OFFSET 0.000000 -0.404085 0.000000 
				CHANNELS 3 Zrotation Xrotation Yrotation
				End Site
				{
					OFFSET 0.204105 -0.089430 -0.008415 
				}
			}
		}
	}
}
MOTION
Frames: 26
Frame Time: 0.02
-2.01373 0.82931 -1.12659 114.66009 0 6.76717 -56.06391 -0.14906 31.6635 -73.79682 43.14318 -45.75153 144.07671 11.40185 64.17117 26.61691 88.18487 2.87947 0.99967 151.5651 42.83264 -64.17119 5.32858 -83.16712 0.67665 4.25999 30.42886 1.3193 22.71932 -51.13376 2.69013 -3.97762 -4.97881 13.05879 6.44912 37.35434 -39.08013 6.43323 6.71008 10.14095
-2.01409 0.83007 -1.12715 114.99018 0 6.68823 -56.06391 -0.28271 31.78006 -73.79682 43.14318 -46.38131 143.70789 11.40185 64.17117 26.43036 88.11785 2.79607 0.98067 151.95552 42.87657 -64.17109 5.32866 -82.96344 0.76139 4.24284 30.30182 1.20879 22.43834 -50.97627 2.63866 -3.99355 -5.04958 13.01779 6.47929 37.33968 -38.91184 6.39673 6.61288 9.85891
-2.01452 0.83112 -1.12783 115.31435 0 6.6294 -56.06391 -0.40833 31.8494 -73.79682 43.14319 -47.06216 143.19823 11.40185 64.17117 26.55631 88.00456 2.82021 0.93545 152.39712 42.93721 -64.17092 5.3288 -82.70792 0.85859 4.21153 30.13591 1.0727 22.16765 -50.75965 2.56529 -4.01178 -5.13 12.92149 6.45399 37.32696 -38.6276 6.31017 6.48782 9.57343
-2.01493 0.83203 -1.12845 115.63961 0 6.55974 -56.06391 -0.53522 31.93845 -73.79682 43.14319 -47.70414 142.75023 11.40185 64.17117 26.53991 87.91434 2.79884 0.90312 152.80349 42.98681 -64.17079 5.3289 -82.48371 0.94751 4.18762 29.98788 0.95157 21.89692 -50.57089 2.50362 -4.02911 -5.20746 12.8527 6.45623 37.31221 -38.40123 6.24993 6.37771 9.29222
-2.01531 0.833 -1.12912 115.9766 0 6.49513 -56.06391 -0.66709 32.03681 -73.79682 43.14319 -48.41207 142.302 11.40185 64.17117 26.52419 87.81637 2.76519 0.86542 153.26169 43.04699 -64.17062 5.32903 -82.22631 1.04662 4.15947 29.83785 0.81642 21.60312 -50.3771 2.43441 -4.04615 -5.28068 12.77509 6.4513 37.30189 -38.15418 6.17578 6.25754 8.99581
-2.01577 0.83389 -1.1297 116.28535 0 6.42572 -56.06391 -0.78866 32.10393 -73.79682 43.14319 -48.99451 141.82547 11.40185 64.17117 26.58207 87.72338 2.78184 0.83319 153.62373 43.09062 -64.17051 5.32911 -82.0257 1.1277 4.1367 29.6837 0.70437 21.36118 -50.18083 2.37603 -4.06425 -5.36395 12.70259 6.44721 37.2831 -37.9232 6.11856 6.15207 8.73208
-2.0164 0.8345 -1.13001 116.52349 0 6.33651 -56.06391 -0.88337 32.09515 -73.79682 43.1432 -49.22127 141.29575 11.40185 64.17118 26.76003 87.65341 2.91195 0.82198 153.70563 43.08437 -64.17062 5.32903 -81.99732 1.15728 4.13425 29.52111 0.66259 21.25992 -49.98247 2.34956 -4.0843 -5.47762 12.65365 6.45774 37.23878 -37.75283 6.11655 6.09147 8.55465
-2.01712 0.835 -1.13023 116.73168 0 6.24232 -56.06391 -0.96879 32.05651 -73.79682 43.1432 -49.31906 140.74555 11.40185 64.17118 27.00229 87.59028 3.08843 0.81741 153.68894 43.06129 -64.17079 5.3289 -82.02748 1.16814 4.1374 29.35693 0.64494 21.21104 -49.78531 2.33524 -4.10535 -5.60001 12.61229 6.47088 37.18615 -37.6045 6.13372 6.04715 8.41165
-2.0178 0.83553 -1.13047 116.94912 0 6.15181 -56.06391 -1.05944 32.03199 -73.79682 43.1432 -49.47429 140.21226 11.40185 64.17118 27.21988 87.52524 3.243 0.81034 153.71882 43.04679 -64.17092 5.32879 -82.02919 1.18692 4.13671 29.19795 0.61608 21.13867 -49.59414 2.31768 -4.12619 -5.71486 12.56995 6.48327 37.13853 -37.45381 6.14447 5.99707 8.25646
-2.01847 0.83615 -1.13077 117.18492 0 6.05615 -56.06391 -1.14543 32.00345 -73.79682 43.1432 -49.63784 139.64168 11.40185 64.17119 27.43027 87.45357 3.40538 0.80029 153.744 43.02963 -64.17108 5.32867 -82.0369 1.20879 4.14094 29.01903 0.58721 21.06514 -49.37394 2.29016 -4.14618 -5.84492 12.5154 6.49192 37.08604 -37.26709 6.14413 5.93905 8.08631
-2.01918 0.83656 -1.13093 117.37532 0 5.96957 -56.06391 -1.2391 31.97692 -73.79682 43.1432 -49.75077 139.14589 11.40185 64.17118 27.66545 87.39788 3.56046 0.79817 153.75372 43.01285 -64.17121 5.32857 -82.04666 1.21937 4.13652 28.88138 0.56459 21.00649 -49.21448 2.28601 -4.16802 -5.94556 12.48869 6.50968 37.04137 -37.16176 6.17172 5.90184 7.95579
-2.02 0.83636 -1.13074 117.44871 0 5.91095 -56.06391 -1.35545 31.96266 -73.79682 43.1432 -49.77259 138.86122 11.40185 64.17113 27.96431 87.38534 3.68901 0.81798 153.75475 43.00898 -64.17123 5.32853 -82.04862 1.20538 4.10647 28.86162 0.55171 20.97441 -49.22934 2.34854 -4.19572 -5.95966 12.53833 6.55211 37.02272 -37.2796 6.27506 5.91803 7.92456
-2.02087 0.83594 -1.13041 117.47757 0 5.86123 -56.06391 -1.47968 31.95198 -73.79682 43.1432 -49.74478 138.65302 11.40184 64.17107 28.28262 87.38866 3.80726 0.84514 153.7417 43.00424 -64.17122 5.32858 -82.05096 1.18017 4.06785 28.88298 0.5445 20.95533 -49.30428 2.43343 -4.22504 -5.94425 12.61587 6.60374 37.01143 -37.47841 6.40545 5.95477 7.93245
-2.02172 0.83564 -1.13015 117.52578 0 5.80625 -56.06391 -1.60136 31.94009 -73.79682 43.14319 -49.7278 138.41122 11.40184 64.17101 28.58279 87.38462 3.92623 0.86828 153.72813 42.99513 -64.17122 5.32856 -82.05253 1.15877 4.03327 28.88339 0.53615 20.93192 -49.34756 2.50476 -4.25297 -5.94454 12.67988 6.65147 36.99565 -37.63824 6.52157 5.98231 7.9235
-2.02255 0.83528 -1.12988 117.57546 0 5.75621 -56.06391 -1.71993 31.92466 -73.79683 43.14323 -49.75454 138.16504 11.40184 64.17095 28.92322 87.38182 4.06305 0.89544 153.73961 43.00683 -64.17122 5.32845 -82.05768 1.14239 3.99756 28.8933 0.52343 20.90546 -49.40935 2.59047 -4.28371 -5.93604 12.74722 6.69851 36.98585 -37.80808 6.64681 6.00978 7.91147
-2.02342 0.83498 -1.12959 117.61343 0 5.69807 -56.06391 -1.84501 31.91874 -73.79681 43.14317 -49.68173 137.9448 11.40183 64.1709 29.18533 87.37964 4.16032 0.91471 153.69779 42.97357 -64.17122 5.32881 -82.05588 1.11283 3.96296 28.8932 0.51974 20.88552 -49.44672 2.65184 -4.30897 -5.93802 12.81477 6.74861 36.96366 -37.97591 6.75908 6.04209 7.91508
-2.02437 0.83493 -1.12926 117.61656 0 5.61541 -56.06391 -2.00425 31.93051 -73.79672 43.14281 -49.33313 137.79159 11.40183 64.17089 29.21144 87.37924 4.14512 0.92038 153.50402 42.83071 -64.17122 5.32821 -82.02413 1.05281 3.92615 28.85569 0.54924 20.89963 -49.40345 2.6365 -4.31875 -5.98218 12.87092 6.8094 36.92095 -38.11953 6.83029 6.0827 7.9491
-2.02534 0.83494 -1.12891 117.61183 0 5.52441 -56.0639 -2.16741 31.95324 -73.79659 43.14236 -48.88945 137.6592 11.40183 64.17089 29.16123 87.37795 4.0917 0.91584 153.25866 42.64031 -64.17123 5.32852 -81.98685 0.9797 3.892 28.80676 0.58584 20.91627 -49.33348 2.59657 -4.32296 -6.03684 12.9272 6.8721 36.86283 -38.25811 6.88717 6.12742 7.99801
-2.0263 0.83493 -1.12856 117.61999 0 5.43711 -56.0639 -2.31567 31.97621 -73.79649 43.14198 -48.49806 137.50836 11.40183 64.17089 29.15456 87.37473 4.05885 0.90957 153.04344 42.46201 -64.17123 5.32986 -81.95908 0.91024 3.86157 28.76276 0.61256 20.91856 -49.27448 2.57048 -4.32969 -6.08254 12.98686 6.93096 36.8014 -38.39803 6.94966 6.17015 8.04195
-2.02727 0.8349 -1.12823 117.58832 0 5.35009 -56.06389 -2.51554 31.9775 -73.79636 43.14149 -48.0652 137.39873 11.40183 64.17088 29.10834 87.38282 4.01056 0.93097 152.80137 42.32269 -64.17123 5.32501 -81.90276 0.84893 3.81043 28.72083 0.667 20.97598 -49.22161 2.53397 -4.33651 -6.14444 13.03322 7.00268 36.78299 -38.54446 7.01698 6.21404 8.0794
-2.02822 0.83491 -1.12786 117.63694 0 5.26088 -56.06389 -2.61383 32.02616 -73.79628 43.1412 -47.69848 137.20643 11.40183 64.17089 29.12973 87.36583 3.98749 0.89154 152.60072 42.09229 -64.17123 5.33339 -81.90342 0.76912 3.80269 28.67192 0.66602 20.92036 -49.14998 2.51296 -4.34181 -6.17604 13.10666 7.04797 36.67216 -38.6755 7.07041 6.25635 8.13377
-2.02915 0.83502 -1.12739 117.92231 0 5.16379 -56.06389 -2.38583 32.20581 -73.79636 43.14149 -47.52357 136.78873 11.40184 64.17094 29.32334 87.28954 4.02512 0.69314 152.5476 41.61044 -64.17123 5.37694 -82.07164 0.62918 3.91817 28.60138 0.50404 20.54064 -49.02337 2.5413 -4.34454 -6.11748 13.25697 7.01928 36.30249 -38.76072 7.08939 6.29149 8.22645
-2.03006 0.83515 -1.12688 118.28711 0 5.06567 -56.0639 -2.06293 32.43201 -73.79649 43.14198 -47.42126 136.28644 11.40184 64.17101 29.59239 87.18651 4.09209 0.4332 152.53384 41.041 -64.17123 5.43384 -82.29511 0.47343 4.07636 28.52491 0.28716 20.04956 -48.88057 2.58593 -4.34609 -6.02954 13.43387 6.96388 35.8421 -38.83075 7.09465 6.32484 8.33551
-2.03097 0.83526 -1.1264 118.60641 0 4.97022 -56.0639 -1.81396 32.63529 -73.79659 43.14236 -47.29543 135.8157 11.40184 64.17107 29.8502 87.08879 4.15871 0.1964 152.48914 40.51892 -64.17122 5.48553 -82.48822 0.33298 4.21261 28.4544 0.09949 19.61626 -48.75094 2.62258 -4.34774 -5.95698 13.59721 6.9211 35.42753 -38.91075 7.10585 6.36045 8.44098
-2.03194 0.83542 -1.12586 118.96268 0 4.86429 -56.06391 -1.4387 32.84723 -73.79671 43.1428 -47.12689 135.36982 11.40185 64.17114 30.01347 87.01845 4.17257 -0.02276 152.49923 39.9622 -64.17123 5.53418 -82.70581 0.15773 4.36029 28.36998 -0.10586 19.15093 -48.59486 2.66062 -4.3502 -5.87374 13.76729 6.87669 34.99133 -38.97904 7.11795 6.39127 8.53403
-2.03277 0.83549 -1.12545 119.26397 0 4.78118 -56.06391 -1.29938 33.05101 -73.79681 43.14316 -47.06499 134.85805 11.40185 64.1712 30.3858 86.88662 4.29956 -0.29015 152.40336 39.45883 -64.17122 5.59162 -82.88248 0.05148 4.49343 28.31295 -0.28757 18.72814 -48.49166 2.70021 -4.35183 -5.80875 13.92904 6.82888 34.58098 -39.06648 7.1249 6.43014 8.65249
